<?xml version="1.0" encoding="UTF-8" standalone="no"?>
<svg
   xmlns:dc="http://purl.org/dc/elements/1.1/"
   xmlns:cc="http://creativecommons.org/ns#"
   xmlns:rdf="http://www.w3.org/1999/02/22-rdf-syntax-ns#"
   xmlns:svg="http://www.w3.org/2000/svg"
   xmlns="http://www.w3.org/2000/svg"
   xmlns:sodipodi="http://sodipodi.sourceforge.net/DTD/sodipodi-0.dtd"
   xmlns:inkscape="http://www.inkscape.org/namespaces/inkscape"
   inkscape:version="1.0 (4035a4fb49, 2020-05-01)"
   sodipodi:docname="control_point-24px.svg"
   id="svg12"
   version="1.1"
   width="24"
   viewBox="0 0 24 24"
   height="24"
   enable-background="new 0 0 24 24">
  <metadata
     id="metadata18">
    <rdf:RDF>
      <cc:Work
         rdf:about="">
        <dc:format>image/svg+xml</dc:format>
        <dc:type
           rdf:resource="http://purl.org/dc/dcmitype/StillImage" />
      </cc:Work>
    </rdf:RDF>
  </metadata>
  <defs
     id="defs16" />
  <sodipodi:namedview
     inkscape:current-layer="svg12"
     inkscape:window-maximized="0"
     inkscape:window-y="0"
     inkscape:window-x="0"
     inkscape:cy="12"
     inkscape:cx="12"
     inkscape:zoom="42"
     showgrid="false"
     id="namedview14"
     inkscape:window-height="1070"
     inkscape:window-width="1662"
     inkscape:pageshadow="2"
     inkscape:pageopacity="0"
     guidetolerance="10"
     gridtolerance="10"
     objecttolerance="10"
     borderopacity="1"
     bordercolor="#666666"
     pagecolor="#ffffff" />
  <g
     id="g4">
    <rect
       id="rect2"
       width="24"
       height="24"
       fill="none" />
  </g>
  <g
     style="fill:#00d800;fill-opacity:1"
     id="g10">
    <g
       style="fill:#00d800;fill-opacity:1"
       id="g8">
      <path
         style="fill:#00d800;fill-opacity:1"
         id="path6"
         d="M12,2C6.48,2,2,6.48,2,12s4.48,10,10,10s10-4.48,10-10S17.52,2,12,2z M16,13h-3v3c0,0.55-0.45,1-1,1l0,0 c-0.55,0-1-0.45-1-1v-3H8c-0.55,0-1-0.45-1-1l0,0c0-0.55,0.45-1,1-1h3V8c0-0.55,0.45-1,1-1l0,0c0.55,0,1,0.45,1,1v3h3 c0.55,0,1,0.45,1,1l0,0C17,12.55,16.55,13,16,13z" />
    </g>
  </g>
</svg>
